<?xml version="1.0" encoding="utf-8"?>
<!-- Generator: Adobe Illustrator 18.0.0, SVG Export Plug-In . SVG Version: 6.00 Build 0)  -->
<!DOCTYPE svg PUBLIC "-//W3C//DTD SVG 1.1//EN" "http://www.w3.org/Graphics/SVG/1.1/DTD/svg11.dtd">
<svg version="1.1" id="Layer_1" xmlns="http://www.w3.org/2000/svg" xmlns:xlink="http://www.w3.org/1999/xlink" x="0px" y="0px"
	 viewBox="0 0 64 64" enable-background="new 0 0 64 64" xml:space="preserve">
<g>
	<g>
		<g>
			<path fill="#76E2FF" d="M32,0c17.7,0,32,14.3,32,32S49.7,64,32,64S0,49.7,0,32S14.4,0,32,0z"/>
		</g>
	</g>
	<g>
		<g>
			<path fill="#E6FAFF" d="M51.1,15.9c0-1.1-8.5-2.7-19-2.7s-19,1.6-19,2.7c0,0,0,0.1,0.1,0.1H13l9.5,10.5L31,36v20h2V36l8.5-9.4
				l9.3-10.4C51,16.1,51.1,16,51.1,15.9z"/>
		</g>
	</g>
	<g>
		<g>
			<polygon fill="#B185E0" points="21.4,24 42.7,24 32,36 			"/>
		</g>
	</g>
	<g>
		<g>
			<ellipse fill="#C7A7F2" cx="32.1" cy="23.8" rx="10.7" ry="2"/>
		</g>
	</g>
	<g>
		<g>
			<ellipse fill="#E6FAFF" cx="31.5" cy="56" rx="9.1" ry="1.3"/>
		</g>
	</g>
	<g>
		<g>
			<ellipse fill="#C9F0F7" cx="32.1" cy="15.8" rx="19" ry="2.6"/>
		</g>
	</g>
	<g opacity="0.2">
		<g>
			<path fill="#FFFFFF" d="M39,18.2L32,36l12.9-18.3C44.9,17.7,42.6,18.1,39,18.2z"/>
		</g>
	</g>
</g>
</svg>
