<?xml version="1.0" encoding="utf-8"?>
<!-- Generator: Adobe Illustrator 18.0.0, SVG Export Plug-In . SVG Version: 6.00 Build 0)  -->
<!DOCTYPE svg PUBLIC "-//W3C//DTD SVG 1.1//EN" "http://www.w3.org/Graphics/SVG/1.1/DTD/svg11.dtd">
<svg version="1.1" id="Layer_1" xmlns="http://www.w3.org/2000/svg" xmlns:xlink="http://www.w3.org/1999/xlink" x="0px" y="0px"
	 viewBox="0 0 64 64" enable-background="new 0 0 64 64" xml:space="preserve">
<g>
	<g>
		<g>
			<path fill="#E5E5E5" d="M32,0c17.7,0,32,14.3,32,32S49.7,64,32,64S0,49.7,0,32S14.3,0,32,0z"/>
		</g>
	</g>
	<g>
		<g>
			<path fill="#FF2458" d="M50,26.6c0,2.4-0.9,4.5-2.3,6.2L32,51L16.3,32.8C14.9,31.2,14,29,14,26.6c0-5.3,4.4-9.6,9.8-9.6
				c3.5,0,6.5,1.8,8.2,4.5c1.7-2.7,4.8-4.5,8.2-4.5C45.6,17,50,21.3,50,26.6z"/>
		</g>
	</g>
	<g>
		<g>
			<g>
				<path fill="#FFFFFF" d="M18,29c-0.6,0-1-0.4-1-1c0-3.9,3.1-7,7-7c0.6,0,1,0.4,1,1s-0.4,1-1,1c-2.8,0-5,2.2-5,5
					C19,28.6,18.6,29,18,29z"/>
			</g>
		</g>
	</g>
</g>
</svg>
